<svg t="1693638041785" class="icon" viewBox="0 0 1024 1024" version="1.1" xmlns="http://www.w3.org/2000/svg" p-id="1754" width="64" height="64"><path d="M775.697 824.77H727.47c-10.629 0-19.246-8.614-19.246-19.243 0-10.629 8.616-19.243 19.246-19.243h48.227c40.783 0 73.959-33.177 73.959-73.959V363.743H146.671c-10.629 0-19.246-8.614-19.246-19.243s8.616-19.243 19.246-19.243h722.231c10.629 0 19.246 8.614 19.246 19.243v367.824c0 62.004-50.447 112.446-112.451 112.446z" fill="#000D16" p-id="1755"></path><path d="M281.56 824.77H146.671c-10.629 0-19.246-8.614-19.246-19.243V222.8c0-10.629 8.616-19.243 19.246-19.243h722.231c10.629 0 19.246 8.614 19.246 19.243s-8.616 19.243-19.246 19.243H165.917v544.241H281.56c10.629 0 19.246 8.614 19.246 19.243 0 10.629-8.616 19.243-19.246 19.243z" fill="#000D16" p-id="1756"></path><path d="M235.106 286.736m-23.632 0a23.632 23.632 0 1 0 47.264 0 23.632 23.632 0 1 0-47.264 0Z" fill="#000D16" p-id="1757"></path><path d="M305.216 286.736m-23.632 0a23.632 23.632 0 1 0 47.264 0 23.632 23.632 0 1 0-47.264 0Z" fill="#000D16" p-id="1758"></path><path d="M374.003 286.736m-23.632 0a23.632 23.632 0 1 0 47.264 0 23.632 23.632 0 1 0-47.264 0Z" fill="#000D16" p-id="1759"></path><path d="M504.277 838.539c-113.689 0-206.183-92.492-206.183-206.183 0-113.687 92.494-206.178 206.183-206.178s206.181 92.492 206.181 206.178c-0.001 113.691-92.492 206.183-206.181 206.183z m0-373.876c-92.465 0-167.692 75.227-167.692 167.692s75.227 167.697 167.692 167.697 167.689-75.232 167.689-167.697-75.224-167.692-167.689-167.692zM504.277 917.654c-50.264 0-99.692-13.255-142.936-38.332-9.192-5.336-12.324-17.111-6.991-26.303 5.331-9.197 17.111-12.321 26.303-6.996 37.383 21.683 80.133 33.145 123.624 33.145 45.522 0 89.993-12.486 128.607-36.11 9.062-5.559 20.914-2.7 26.459 6.375 5.548 9.065 2.694 20.908-6.373 26.456-44.663 27.322-96.08 41.765-148.693 41.765z" fill="#000D16" p-id="1760"></path><path d="M766.882 694.71c-1.029 0-2.071-0.085-3.119-0.255-10.491-1.708-17.609-11.6-15.899-22.091a249.554 249.554 0 0 0 3.222-40.008c0-73.928-32.739-143.347-89.824-190.462-8.197-6.763-9.359-18.893-2.594-27.093 6.768-8.2 18.898-9.356 27.093-2.588 65.977 54.451 103.816 134.69 103.816 220.144 0 15.488-1.254 31.034-3.726 46.203-1.538 9.44-9.703 16.15-18.969 16.15zM241.677 694.763c-9.263 0-17.429-6.71-18.97-16.151a288.179 288.179 0 0 1-3.734-46.256c0-79.953 33.879-156.755 92.948-210.708 7.85-7.176 20.02-6.619 27.188 1.231 7.168 7.85 6.617 20.023-1.231 27.188-51.104 46.681-80.414 113.124-80.414 182.289 0 13.44 1.087 26.918 3.23 40.061 1.711 10.491-5.405 20.378-15.896 22.091a19.49 19.49 0 0 1-3.121 0.255zM371.002 743.231c-7.712 0-14.992-4.668-17.946-12.289-3.845-9.908 1.071-21.057 10.982-24.902 7.707-2.986 11.189-6.216 11.831-8.073 0.122-0.35 0.151-0.78 0.135-1.199-23.873-21.747-17.108-56.339-9.637-72.49a19.214 19.214 0 0 1 2.058-3.453c3.999-5.341 4.686-8.465 4.612-9.139-1.883-4.699-21.815-12.178-41.507-13.764-10.582-0.849-18.492-10.109-17.657-20.696 0.833-10.587 10.094-18.516 20.651-17.678 9.884 0.764 59.885 6.105 73.585 36.322 4.503 9.934 6.749 25.847-7.354 45.928-1.803 4.789-6.94 20.893 2.668 27.719a19.212 19.212 0 0 1 5.413 5.872c1.005 1.697 9.651 17.1 3.413 35.15-4.79 13.859-16.326 24.42-34.293 31.389a19.254 19.254 0 0 1-6.954 1.303zM490.237 835.388c-5.853 0-11.632-2.663-15.411-7.701-25.438-33.919-10.841-70.931 0.432-85.761a19.273 19.273 0 0 1 6.617-5.516 115.498 115.498 0 0 0 6.813-3.723c-14.302-4.943-34.821-15.154-37.974-36.179-3.742-24.95 20.893-43.329 28.438-48.32 3.989-3.411 5.198-5.866 5.121-6.492-0.56-4.561-11.762-14.045-22.614-19.142-24.367-12.173-29.962-28.621-30.448-40.311-1.589-38.2 52.253-72.946 63.062-79.529 33.201-19.041 41.857-33.882 42.594-38.555-1.236-9.5 4.774-18.644 14.284-21.094 10.298-2.684 20.786 3.538 23.441 13.828 2.326 9.022 4.819 41.371-60.744 78.961-22.871 13.987-44.559 35.887-44.18 44.798 0.061 1.4 2.747 4.217 8.505 7.134 7.473 3.495 40.695 20.58 44.286 49.094 1.339 10.629-0.997 26.499-19.726 41.753-0.605 0.493-1.236 0.949-1.894 1.363-4.424 2.843-9.322 7.484-11.274 10.513 2.161 1.681 7.542 4.906 19.742 8.211 0.416 0.111 0.83 0.239 1.236 0.377 10.804 3.723 23.794 13.488 24.847 28.748 1.329 19.28-16.069 32.079-31.4 40.422-3.562 6.402-9.555 21.418 1.626 36.327 6.378 8.502 4.654 20.564-3.848 26.944a19.177 19.177 0 0 1-11.531 3.85zM555.742 817.752c-4.925 0-9.85-1.878-13.607-5.633-7.508-7.51-7.516-19.673-0.027-27.194 12.406-12.512 24.051-32.307 21.068-40.072-8.115-21.094 7.892-37.462 20.755-50.616 7.304-7.473 17.31-17.705 16.976-23.603-0.183-3.273-4.087-8.311-10.438-13.488a19.247 19.247 0 0 1-7.001-16.755c0.459-4.768 5.376-46.994 36.945-62.476 19.898-9.749 43.663-6.068 70.634 10.963 8.985 5.681 11.669 17.567 5.991 26.552-5.673 8.98-17.564 11.674-26.549 5.994-14.443-9.123-26.186-12.316-33.081-8.974-7.062 3.426-11.616 14.077-13.931 22.86 9.876 10.38 15.201 21.497 15.862 33.156 1.289 22.839-14.888 39.382-27.886 52.68-3.819 3.909-9.338 9.547-11.398 12.804 2.93 10.486 6.675 40.788-30.702 78.171a19.205 19.205 0 0 1-13.611 5.631z" fill="#000D16" p-id="1761"></path></svg>