<svg t="1692865532818" class="icon" viewBox="0 0 1024 1024" version="1.1" xmlns="http://www.w3.org/2000/svg" p-id="5406" id="mx_n_1692865532819" width="200" height="200"><path d="M186.57 372.67H129V170.53a50.1 50.1 0 0 1 50-50h202.14v57.6H186.57zM895 372.67h-57.6V178.09H642.86v-57.6H845a50.1 50.1 0 0 1 50 50zM844.81 886.56H642.68V829h194.57V634.39h57.6v202.13a50.1 50.1 0 0 1-50.04 50.04zM381.14 886.38H179a50.1 50.1 0 0 1-50-50V634.21h57.6v194.57h194.54zM222.56 475.63h578.87v57.6H222.56z" p-id="5407" fill="#666666"></path></svg>