<svg t="1692865594067" class="icon" viewBox="0 0 1024 1024" version="1.1" xmlns="http://www.w3.org/2000/svg" p-id="6571" id="mx_n_1692865594068" width="200" height="200"><path d="M557.3 269.2L512 224 288 448l45.2 45.2L480 346.5V736h64V346.5l137.4 137.4 45.2-45.3-169.4-169.4z" fill="#666666" p-id="6572"></path><path d="M512 64C264.6 64 64 264.6 64 512s200.6 448 448 448 448-200.6 448-448S759.4 64 512 64z m271.6 719.7c-35.3 35.3-76.4 63-122.1 82.3-47.3 20-97.6 30.2-149.5 30.2S409.8 886.1 362.5 866c-45.7-19.3-86.8-47-122.1-82.3s-63-76.4-82.3-122.1c-20-47.3-30.2-97.6-30.2-149.5s10.1-102.2 30.2-149.5c19.3-45.7 47-86.8 82.3-122.1s76.4-63 122.1-82.3C409.8 138.1 460.1 128 512 128c51.9 0 102.2 10.1 149.5 30.2 45.7 19.3 86.8 47 122.1 82.3s63 76.4 82.3 122.1c20 47.3 30.2 97.6 30.2 149.5S886 614.3 865.9 661.6c-19.3 45.7-47 86.8-82.3 122.1z" fill="#666666" p-id="6573"></path></svg>